<?xml version="1.0" encoding="utf-8"?>
<!-- Generator: Adobe Illustrator 19.1.0, SVG Export Plug-In . SVG Version: 6.00 Build 0)  -->
<svg version="1.1" id="Layer_1" xmlns="http://www.w3.org/2000/svg" xmlns:xlink="http://www.w3.org/1999/xlink" x="0px" y="0px"
	 viewBox="0 0 357 185" enable-background="new 0 0 357 185" xml:space="preserve">
<g>
	<path fill="#ffffff" d="M282.6,11.5c-22.4,0-42,12.2-52.5,30.2c-10.5-18.1-30.1-30.2-52.5-30.2s-42,12.2-52.5,30.2
		C114.5,23.7,95,11.5,72.6,11.5c-33.5,0-60.7,27.2-60.7,60.7c0,33.5,27.2,60.7,60.7,60.7c22.4,0,42-12.2,52.5-30.2
		c10.5,18.1,30.1,30.2,52.5,30.2s42-12.2,52.5-30.2c10.5,18.1,30.1,30.2,52.5,30.2c33.5,0,60.7-27.2,60.7-60.7
		C343.3,38.7,316.1,11.5,282.6,11.5z M71.6,116.6c-12.1,0-22-5.4-26.2-8.6c-1.9-1.7-3.1-3.7-0.7-7l2.6-3.8c1.9-2.6,4-2.8,7-1.1
		c2.8,1.9,8.9,6.2,17.3,6.2c7.9,0,12.7-4,12.7-9.7c0-16.2-39.7-12.8-39.7-39.4c0-15,12.5-24.7,28.7-24.7c10.1,0,18.4,3.8,22,6.5
		c2.6,1.9,3,4.2,1.6,6.8l-2.2,4c-1.8,3.5-4.3,3-6.8,1.7c-3.5-2-8.2-4.7-14.8-4.7c-7.9,0-13,3.8-13,9.6c0,16,39.7,11.9,39.7,39
		C99.8,105.2,89.5,116.6,71.6,116.6z M183.9,86.8h-17.4v24.4c0,3.4-1.7,5-4.9,5h-5.5c-3.2,0-4.9-1.7-4.9-5V36c0-3.2,1.7-5,4.9-5
		h27.8c16,0,27.1,11.2,27.1,27.7C211,75.2,199.9,86.8,183.9,86.8z M314.2,106c-4.8,3.8-15,10.6-30.1,10.6c-26.8,0-44-19.3-44-44.4
		c0-24.7,18.1-43.7,43.9-43.7c13.9,0,23.3,5.3,27.8,8.5c2.5,1.9,2.6,4.3,1,7l-2.2,3.5c-1.7,2.8-4,3-6.8,1.2c-3.7-2.4-10.4-6-19.2-6
		C266,42.7,256,56.2,256,72c0,16,10.3,30.5,28.7,30.5c9.6,0,16.9-4.6,20.9-7.4c2.6-1.9,5-1.9,7,0.8l2.4,3.2
		C316.7,101.5,316.6,104,314.2,106z"/>
	<path fill="#ffffff" d="M181.3,44.3h-14.8v29H181c9.1,0,14.3-5.8,14.3-14.6C195.3,49.9,190.2,44.3,181.3,44.3z"/>
</g>
<text fill="#ffffff" transform="matrix(1 0 0 1 18.5132 168.666)"><tspan x="0" y="0" font-family="'BlissPro-Bold'" font-size="23.1201px">Simpson Perform</tspan><tspan x="166.1" y="0" font-family="'BlissPro-Bold'" font-size="23.1201px">a</tspan><tspan x="176.9" y="0" font-family="'BlissPro-Bold'" font-size="23.1201px">nce Consulting</tspan></text>
</svg>
